<svg display="none" xmlns="http://www.w3.org/2000/svg">

    <symbol id="logo" viewBox="0 0 255 25" width="255" height="25">
        <g clip-path="url(#clip0_38_316)">
            <path d="M41.3199 20.28C40.1866 20.28 39.0866 20.14 38.0199 19.86C36.9532 19.58 36.0866 19.2067 35.4199 18.74L36.7199 15.82C37.3466 16.2333 38.0732 16.5667 38.8999 16.82C39.7266 17.0733 40.5399 17.2 41.3399 17.2C42.8599 17.2 43.6199 16.82 43.6199 16.06C43.6199 15.66 43.3999 15.3667 42.9599 15.18C42.5332 14.98 41.8399 14.7733 40.8799 14.56C39.8266 14.3333 38.9466 14.0933 38.2399 13.84C37.5332 13.5733 36.9266 13.1533 36.4199 12.58C35.9132 12.0067 35.6599 11.2333 35.6599 10.26C35.6599 9.40664 35.8932 8.63997 36.3599 7.95997C36.8266 7.26664 37.5199 6.71997 38.4399 6.31997C39.3732 5.91997 40.5132 5.71997 41.8599 5.71997C42.7799 5.71997 43.6866 5.82664 44.5799 6.03997C45.4732 6.23997 46.2599 6.53997 46.9399 6.93997L45.7199 9.87997C44.3866 9.15997 43.0932 8.79997 41.8399 8.79997C41.0532 8.79997 40.4799 8.91997 40.1199 9.15997C39.7599 9.38664 39.5799 9.68664 39.5799 10.06C39.5799 10.4333 39.7932 10.7133 40.2199 10.9C40.6466 11.0867 41.3332 11.28 42.2799 11.48C43.3466 11.7067 44.2266 11.9533 44.9199 12.22C45.6266 12.4733 46.2332 12.8867 46.7399 13.46C47.2599 14.02 47.5199 14.7867 47.5199 15.76C47.5199 16.6 47.2866 17.36 46.8199 18.04C46.3532 18.72 45.6532 19.2667 44.7199 19.68C43.7866 20.08 42.6532 20.28 41.3199 20.28ZM61.9891 20L61.9491 12.58L58.3491 18.62H56.5891L53.0091 12.78V20H49.3491V5.99997H52.6091L57.5291 14.08L62.3291 5.99997H65.5891L65.6291 20H61.9891ZM81.0712 20L81.0312 12.58L77.4312 18.62H75.6712L72.0912 12.78V20H68.4312V5.99997H71.6912L76.6112 14.08L81.4112 5.99997H84.6712L84.7112 20H81.0712ZM99.0935 14.64H97.2935V20H93.3535V5.99997H97.2935V11.44H99.1935L102.534 5.99997H106.694L102.314 12.76L106.734 20H102.274L99.0935 14.64ZM121.636 5.99997L115.836 16.82C115.223 17.98 114.469 18.86 113.576 19.46C112.696 20.06 111.729 20.36 110.676 20.36C109.903 20.36 109.076 20.1867 108.196 19.84L109.136 16.92C109.683 17.08 110.149 17.16 110.536 17.16C110.923 17.16 111.263 17.0733 111.556 16.9C111.863 16.7267 112.143 16.4533 112.396 16.08L106.956 5.99997H111.136L114.396 12.76L117.776 5.99997H121.636ZM129.306 5.99997C130.573 5.99997 131.673 6.2133 132.606 6.63997C133.54 7.0533 134.26 7.6533 134.766 8.43997C135.273 9.2133 135.526 10.1267 135.526 11.18C135.526 12.2333 135.273 13.1467 134.766 13.92C134.26 14.6933 133.54 15.2933 132.606 15.72C131.673 16.1333 130.573 16.34 129.306 16.34H126.866V20H122.906V5.99997H129.306ZM129.066 13.22C129.88 13.22 130.493 13.0467 130.906 12.7C131.32 12.34 131.526 11.8333 131.526 11.18C131.526 10.5267 131.32 10.02 130.906 9.65997C130.493 9.29997 129.88 9.11997 129.066 9.11997H126.866V13.22H129.066ZM146.277 17.28H140.357L139.257 20H135.217L141.397 5.99997H145.297L151.497 20H147.377L146.277 17.28ZM145.117 14.36L143.317 9.87997L141.517 14.36H145.117ZM163.678 9.13997H159.398V20H155.498V9.13997H151.198V5.99997H163.678V9.13997ZM172.189 20.28C170.709 20.28 169.375 19.9667 168.189 19.34C167.015 18.7133 166.089 17.8467 165.409 16.74C164.742 15.6333 164.409 14.3867 164.409 13C164.409 11.6133 164.742 10.3667 165.409 9.25997C166.089 8.1533 167.015 7.28664 168.189 6.65997C169.375 6.0333 170.709 5.71997 172.189 5.71997C173.669 5.71997 174.995 6.0333 176.169 6.65997C177.355 7.28664 178.282 8.1533 178.949 9.25997C179.629 10.3667 179.969 11.6133 179.969 13C179.969 14.3867 179.629 15.6333 178.949 16.74C178.282 17.8467 177.355 18.7133 176.169 19.34C174.995 19.9667 173.669 20.28 172.189 20.28ZM172.189 17C172.895 17 173.535 16.8333 174.109 16.5C174.682 16.1667 175.135 15.7 175.469 15.1C175.802 14.4867 175.969 13.7867 175.969 13C175.969 12.2133 175.802 11.52 175.469 10.92C175.135 10.3067 174.682 9.8333 174.109 9.49997C173.535 9.16664 172.895 8.99997 172.189 8.99997C171.482 8.99997 170.842 9.16664 170.269 9.49997C169.695 9.8333 169.242 10.3067 168.909 10.92C168.575 11.52 168.409 12.2133 168.409 13C168.409 13.7867 168.575 14.4867 168.909 15.1C169.242 15.7 169.695 16.1667 170.269 16.5C170.842 16.8333 171.482 17 172.189 17ZM188.486 5.99997C189.753 5.99997 190.853 6.2133 191.786 6.63997C192.719 7.0533 193.439 7.6533 193.946 8.43997C194.453 9.2133 194.706 10.1267 194.706 11.18C194.706 12.2333 194.453 13.1467 193.946 13.92C193.439 14.6933 192.719 15.2933 191.786 15.72C190.853 16.1333 189.753 16.34 188.486 16.34H186.046V20H182.086V5.99997H188.486ZM188.246 13.22C189.059 13.22 189.673 13.0467 190.086 12.7C190.499 12.34 190.706 11.8333 190.706 11.18C190.706 10.5267 190.499 10.02 190.086 9.65997C189.673 9.29997 189.059 9.11997 188.246 9.11997H186.046V13.22H188.246ZM203.515 20.28C202.049 20.28 200.729 19.9733 199.555 19.36C198.395 18.7333 197.482 17.8667 196.815 16.76C196.149 15.6533 195.815 14.4 195.815 13C195.815 11.6 196.149 10.3467 196.815 9.23997C197.482 8.1333 198.395 7.2733 199.555 6.65997C200.729 6.0333 202.049 5.71997 203.515 5.71997C204.795 5.71997 205.949 5.94664 206.975 6.39997C208.002 6.8533 208.855 7.50664 209.535 8.35997L207.015 10.64C206.109 9.54664 205.009 8.99997 203.715 8.99997C202.955 8.99997 202.275 9.16664 201.675 9.49997C201.089 9.8333 200.629 10.3067 200.295 10.92C199.975 11.52 199.815 12.2133 199.815 13C199.815 13.7867 199.975 14.4867 200.295 15.1C200.629 15.7 201.089 16.1667 201.675 16.5C202.275 16.8333 202.955 17 203.715 17C205.009 17 206.109 16.4533 207.015 15.36L209.535 17.64C208.855 18.4933 208.002 19.1467 206.975 19.6C205.949 20.0533 204.795 20.28 203.515 20.28ZM222.487 9.13997H218.207V20H214.307V9.13997H210.007V5.99997H222.487V9.13997ZM234.513 12.68C235.339 12.9467 235.966 13.36 236.393 13.92C236.833 14.48 237.053 15.1733 237.053 16C237.053 17.24 236.566 18.22 235.593 18.94C234.633 19.6467 233.266 20 231.493 20H224.313V5.99997H231.113C232.793 5.99997 234.093 6.31997 235.013 6.95997C235.946 7.58664 236.413 8.47997 236.413 9.63997C236.413 10.32 236.246 10.92 235.913 11.44C235.593 11.96 235.126 12.3733 234.513 12.68ZM228.213 11.6H230.733C231.853 11.6 232.413 11.14 232.413 10.22C232.413 9.29997 231.853 8.83997 230.733 8.83997H228.213V11.6ZM231.333 17.16C232.479 17.16 233.053 16.6733 233.053 15.7C233.053 14.7533 232.479 14.28 231.333 14.28H228.213V17.16H231.333ZM246.075 20.28C244.595 20.28 243.262 19.9667 242.075 19.34C240.902 18.7133 239.975 17.8467 239.295 16.74C238.629 15.6333 238.295 14.3867 238.295 13C238.295 11.6133 238.629 10.3667 239.295 9.25997C239.975 8.1533 240.902 7.28664 242.075 6.65997C243.262 6.0333 244.595 5.71997 246.075 5.71997C247.555 5.71997 248.882 6.0333 250.055 6.65997C251.242 7.28664 252.169 8.1533 252.835 9.25997C253.515 10.3667 253.855 11.6133 253.855 13C253.855 14.3867 253.515 15.6333 252.835 16.74C252.169 17.8467 251.242 18.7133 250.055 19.34C248.882 19.9667 247.555 20.28 246.075 20.28ZM246.075 17C246.782 17 247.422 16.8333 247.995 16.5C248.569 16.1667 249.022 15.7 249.355 15.1C249.689 14.4867 249.855 13.7867 249.855 13C249.855 12.2133 249.689 11.52 249.355 10.92C249.022 10.3067 248.569 9.8333 247.995 9.49997C247.422 9.16664 246.782 8.99997 246.075 8.99997C245.369 8.99997 244.729 9.16664 244.155 9.49997C243.582 9.8333 243.129 10.3067 242.795 10.92C242.462 11.52 242.295 12.2133 242.295 13C242.295 13.7867 242.462 14.4867 242.795 15.1C243.129 15.7 243.582 16.1667 244.155 16.5C244.729 16.8333 245.369 17 246.075 17Z"/>
            <path d="M1.08781 10.7876L7.62539 9.01947C7.82093 8.96877 7.90802 8.73907 7.80971 8.56259C6.87465 6.88388 6.72912 4.39578 6.86762 2.92764C7.0162 1.3081 8.08599 0.639486 8.94776 1.18923C9.60152 1.5904 9.34893 2.66019 10.909 4.78491C11.5944 5.72331 12.7137 6.31005 13.7573 6.67786C14.5365 6.9525 15.3857 6.9157 16.1837 6.7016C16.9563 6.49359 17.7438 6.95419 17.9518 7.71196L18.1449 8.41029C18.2189 8.68136 18.2111 8.95243 18.1366 9.19839C18.0842 9.37141 18.2567 9.61857 18.4313 9.57157C18.5276 9.54564 18.6267 9.6026 18.6528 9.69886L20.9722 18.2553C21.0121 18.4027 20.9346 18.5547 20.7897 18.603L12.2314 22.689C12.1868 22.7038 12.1423 22.7038 12.0977 22.7187C12.0175 22.7454 11.9377 22.7744 11.8562 22.7965L6.94191 24.1302C6.16929 24.3382 5.38181 23.8776 5.17379 23.1198L4.98064 22.4215C4.77262 21.6489 5.23323 20.8614 5.99099 20.6534L5.29266 20.8465C4.52004 21.0546 3.73255 20.6088 3.52454 19.8362L3.33138 19.1379C3.12337 18.3652 3.58397 17.5778 4.34174 17.3697L3.6434 17.5629C2.87078 17.7709 2.0833 17.3103 1.87529 16.5526L1.68213 15.8542C1.47412 15.0816 1.93472 14.2941 2.69249 14.0861L1.99415 14.2793C1.22153 14.4873 0.434048 14.0267 0.226034 13.2689L0.0328789 12.5706C-0.130561 11.7831 0.330041 10.9956 1.08781 10.7876Z" fill="#EFC492"/>
            <path d="M15.946 4.36891L19.4228 3.43285C20.1954 3.22483 20.9829 3.68544 21.1909 4.4432L21.3098 4.85923L21.4286 5.31983L24.7123 17.4144L24.8312 17.8304L24.95 18.291C25.158 19.0636 24.6974 19.8511 23.9397 20.0591L20.4629 20.9952C19.6902 21.2032 18.9028 20.7574 18.6947 19.9848L18.5759 19.5242L18.457 19.1082L15.1734 7.01366L15.0545 6.55305L14.9356 6.13703C14.7128 5.36441 15.1734 4.57693 15.946 4.36891Z" fill="#253758"/>
            <path d="M19.6158 18.2464C19.7198 18.603 20.0764 18.8258 20.4479 18.7218C20.8045 18.6178 21.0125 18.2464 20.9233 17.8898L17.8923 6.68672C17.7883 6.33013 17.4317 6.12212 17.0602 6.21126C16.7036 6.31527 16.4807 6.67187 16.5847 7.04332L19.6158 18.2464Z" fill="white"/>
        </g>
    </symbol>

    <symbol id="result-strat" viewBox="0 0 45 45" width="45" height="45"> 
        <g>
            <path class="fill-white" d="M2.77734 14.0977C2.98828 14.3086 3.23437 14.4141 3.51562 14.4141C3.79687 14.4141 4.04297 14.3086 4.25391 14.0977L8.4375 9.91406L12.6211 14.0977C12.832 14.3086 13.1133 14.4141 13.3594 14.4141C13.6055 14.4141 13.8867 14.3086 14.0977 14.0977C14.5195 13.6758 14.5195 13.0078 14.0977 12.6211L9.91406 8.4375L14.0977 4.25391C14.5195 3.83203 14.5195 3.16406 14.0977 2.77734C13.6758 2.35547 13.0078 2.35547 12.6211 2.77734L8.4375 6.96094L4.25391 2.77734C3.83203 2.35547 3.16406 2.35547 2.77734 2.77734C2.35547 3.16406 2.35547 3.86719 2.77734 4.25391L6.96094 8.4375L2.77734 12.6211C2.35547 13.0078 2.35547 13.7109 2.77734 14.0977Z"/>
            <path d="M36.5625 30.5859C33.2578 30.5859 30.5859 33.2578 30.5859 36.5625C30.5859 39.8672 33.2578 42.5391 36.5625 42.5391C39.8672 42.5391 42.5391 39.8672 42.5391 36.5625C42.5391 33.2578 39.8672 30.5859 36.5625 30.5859ZM36.5625 40.4297C34.418 40.4297 32.6953 38.707 32.6953 36.5625C32.6953 34.418 34.418 32.6953 36.5625 32.6953C38.707 32.6953 40.4297 34.418 40.4297 36.5625C40.4297 38.707 38.707 40.4297 36.5625 40.4297Z" />
            <path d="M11.1797 40.8165C10.6172 40.9571 10.3008 41.5548 10.4415 42.1173C10.5821 42.6797 10.7579 43.2774 10.9337 43.8751C11.0743 44.3321 11.4962 44.6485 11.9532 44.6485C12.0587 44.6485 12.129 44.6485 12.2344 44.6133C12.7969 44.4376 13.1133 43.8751 12.9727 43.3126C12.7969 42.7149 12.6563 42.1172 12.4805 41.5547C12.3399 40.9922 11.7422 40.6758 11.1797 40.8165Z" />
            <path d="M32.4142 19.8984C30.34 21.4805 25.9806 21.5508 21.7619 21.6562C17.508 21.7617 13.5353 21.832 11.3205 23.4141C7.91032 25.875 7.17204 28.0547 9.10563 36.8086C9.2111 37.3008 9.63298 37.6523 10.1252 37.6523C10.1955 37.6523 10.2658 37.6523 10.3361 37.6172C10.8986 37.4766 11.2502 36.9141 11.1447 36.3516C9.28142 27.8789 10.1603 26.8594 12.5509 25.1367C14.2033 23.9414 18.0705 23.8711 21.797 23.7656C26.3674 23.6602 31.0431 23.5547 33.6799 21.5859C36.2111 19.6875 36.9845 15.8203 36.0705 10.125C35.7541 8.15625 35.2619 6.36328 34.8752 4.95703L39.1642 7.24218C39.6916 7.52343 40.3244 7.3125 40.6056 6.82031C40.8869 6.29297 40.6759 5.66015 40.1838 5.3789L33.6095 1.86328C33.0822 1.58203 32.4494 1.79296 32.1681 2.28515L28.6525 8.85937C28.3713 9.38672 28.5822 10.0195 29.0744 10.3008C29.215 10.3711 29.3908 10.4414 29.5666 10.4414C29.9533 10.4414 30.3049 10.2305 30.5158 9.8789L32.8713 5.48437C34.172 10.0195 35.5783 17.5078 32.4142 19.8984Z"/>
        </g>
    </symbol>

    <symbol id="result-plan" width="45" height="45" viewBox="0 0 45 45"> 
        <g clip-path="url(#clip0_38_127)">
            <path d="M7.03125 37.6172C4.31719 37.6172 2.10937 35.4094 2.10937 32.6953L2.10937 26.3672C2.10937 23.6531 4.31719 21.4453 7.03125 21.4453C9.74531 21.4453 11.9531 23.6531 11.9531 26.3672L11.9531 32.6953C11.9531 35.4094 9.74531 37.6172 7.03125 37.6172ZM7.03125 23.5547C5.48086 23.5547 4.21875 24.8168 4.21875 26.3672L4.21875 32.6953C4.21875 34.2457 5.48086 35.5078 7.03125 35.5078C8.58164 35.5078 9.84375 34.2457 9.84375 32.6953L9.84375 26.3672C9.84375 24.8168 8.58164 23.5547 7.03125 23.5547Z" />
            <path d="M37.9687 44.2969L3.16406 44.2969C2.58047 44.2969 2.10937 43.8258 2.10937 43.2422C2.10937 42.6586 2.58047 42.1875 3.16406 42.1875L37.9687 42.1875C39.5191 42.1875 40.7812 40.9254 40.7812 39.375L40.7812 15.8203C40.7812 14.2699 39.5191 13.0078 37.9687 13.0078C36.4184 13.0078 35.1562 14.2699 35.1562 15.8203L35.1562 36.2109C35.1562 36.7945 34.6852 37.2656 34.1016 37.2656C33.518 37.2656 33.0469 36.7945 33.0469 36.2109L33.0469 15.8203C33.0469 13.1063 35.2547 10.8984 37.9688 10.8984C40.6828 10.8984 42.8906 13.1063 42.8906 15.8203L42.8906 39.375C42.8906 42.0891 40.6828 44.2969 37.9687 44.2969Z" />
            <path d="M22.5 37.6172C19.7859 37.6172 17.5781 35.4094 17.5781 32.6953L17.5781 5.27344C17.5781 2.55938 19.7859 0.351563 22.5 0.351563C25.2141 0.351563 27.4219 2.55938 27.4219 5.27344L27.4219 32.6953C27.4219 35.4094 25.2141 37.6172 22.5 37.6172ZM22.5 2.46094C20.9496 2.46094 19.6875 3.72305 19.6875 5.27344L19.6875 32.6953C19.6875 34.2457 20.9496 35.5078 22.5 35.5078C24.0504 35.5078 25.3125 34.2457 25.3125 32.6953L25.3125 5.27344C25.3125 3.72305 24.0504 2.46094 22.5 2.46094Z" />
        </g>
    </symbol>

    <symbol id="result-design" width="45" height="45" viewBox="0 0 45 45" >
        <g>
            <path d="M36.5625 19.3359H27.0703C26.4727 19.3359 26.0156 19.793 26.0156 20.3906V30.9375C26.0156 31.5352 26.4727 31.9922 27.0703 31.9922H36.5625C37.1602 31.9922 37.6172 31.5352 37.6172 30.9375V20.3906C37.6172 19.793 37.1602 19.3359 36.5625 19.3359Z"/>
            <path d="M40.0781 44.6484H4.92188C2.39062 44.6484 0.351562 42.6094 0.351562 40.0781V14.4141C0.351562 13.8164 0.808594 13.3594 1.40625 13.3594C2.00391 13.3594 2.46094 13.8164 2.46094 14.4141V40.0781C2.46094 41.4492 3.55078 42.5391 4.92188 42.5391H40.0781C41.4492 42.5391 42.5391 41.4492 42.5391 40.0781V4.92188C42.5391 3.55078 41.4492 2.46094 40.0781 2.46094H4.92188C3.55078 2.46094 2.46094 3.55078 2.46094 4.92188V8.78906H39.0234C39.6211 8.78906 40.0781 9.24609 40.0781 9.84375C40.0781 10.4414 39.6211 10.8984 39.0234 10.8984H1.40625C0.808594 10.8984 0.351562 10.4414 0.351562 9.84375V4.92188C0.351562 2.39062 2.39062 0.351562 4.92188 0.351562H40.0781C42.6094 0.351562 44.6484 2.39062 44.6484 4.92188V40.0781C44.6484 42.6094 42.6094 44.6484 40.0781 44.6484Z"/>
            <path d="M5.625 6.67969C6.20749 6.67969 6.67969 6.20749 6.67969 5.625C6.67969 5.04251 6.20749 4.57031 5.625 4.57031C5.04251 4.57031 4.57031 5.04251 4.57031 5.625C4.57031 6.20749 5.04251 6.67969 5.625 6.67969Z" />
            <path d="M9.14062 6.67969C9.72311 6.67969 10.1953 6.20749 10.1953 5.625C10.1953 5.04251 9.72311 4.57031 9.14062 4.57031C8.55814 4.57031 8.08594 5.04251 8.08594 5.625C8.08594 6.20749 8.55814 6.67969 9.14062 6.67969Z"/>
            <path d="M12.6562 6.67969C13.2387 6.67969 13.7109 6.20749 13.7109 5.625C13.7109 5.04251 13.2387 4.57031 12.6562 4.57031C12.0738 4.57031 11.6016 5.04251 11.6016 5.625C11.6016 6.20749 12.0738 6.67969 12.6562 6.67969Z" />
            <path d="M21.4453 21.4453H8.4375C7.83984 21.4453 7.38281 20.9883 7.38281 20.3906C7.38281 19.793 7.83984 19.3359 8.4375 19.3359H21.4453C22.043 19.3359 22.5 19.793 22.5 20.3906C22.5 20.9883 22.043 21.4453 21.4453 21.4453Z" />
            <path d="M21.4453 26.7188H8.4375C7.83984 26.7188 7.38281 26.2617 7.38281 25.6641C7.38281 25.0664 7.83984 24.6094 8.4375 24.6094H21.4453C22.043 24.6094 22.5 25.0664 22.5 25.6641C22.5 26.2617 22.043 26.7188 21.4453 26.7188Z" />
            <path d="M17.9297 31.9922H8.4375C7.83984 31.9922 7.38281 31.5352 7.38281 30.9375C7.38281 30.3398 7.83984 29.8828 8.4375 29.8828H17.9297C18.5273 29.8828 18.9844 30.3398 18.9844 30.9375C18.9844 31.5352 18.5273 31.9922 17.9297 31.9922Z" />
            <path d="M21.4453 31.9922C21.375 31.9922 21.3047 31.9922 21.2344 31.957C21.1641 31.957 21.0937 31.9219 21.0234 31.8867C20.9531 31.8516 20.918 31.8164 20.8477 31.7813C20.7773 31.7461 20.7422 31.7109 20.6719 31.6406C20.4961 31.5 20.3906 31.2188 20.3906 30.9375C20.3906 30.8672 20.3906 30.7969 20.4258 30.7266C20.4258 30.6563 20.4609 30.5859 20.4961 30.5156C20.5312 30.4453 20.5664 30.4102 20.6016 30.3398C20.6367 30.2695 20.6719 30.2344 20.7422 30.1641C21.1289 29.7773 21.832 29.7773 22.2187 30.1641C22.2539 30.1992 22.3242 30.2695 22.3594 30.3398C22.3945 30.4102 22.4297 30.4453 22.4648 30.5156C22.5 30.5859 22.5 30.6563 22.5352 30.7266C22.5352 30.7969 22.5703 30.8672 22.5703 30.9375C22.5703 31.2188 22.4648 31.5 22.2539 31.6758C22.0078 31.8867 21.7266 31.9922 21.4453 31.9922Z" />
        </g>
    </symbol>

    <symbol id="result-sells" width="45" height="45" viewBox="0 0 45 45" >
        <g clip-path="url(#clip0_38_123)">
            <path d="M8.4375 0.351563C3.97969 0.351563 0.351562 3.97969 0.351562 8.4375L0.351562 15.4688C0.351562 16.0523 0.822656 16.5234 1.40625 16.5234C1.98984 16.5234 2.46094 16.0523 2.46094 15.4688L2.46094 8.4375C2.46094 5.14336 5.14336 2.46094 8.4375 2.46094L36.5625 2.46094C39.8566 2.46094 42.5391 5.14336 42.5391 8.4375L42.5391 12.3047C42.5391 12.8883 43.0102 13.3594 43.5937 13.3594C44.1773 13.3594 44.6484 12.8883 44.6484 12.3047L44.6484 8.4375C44.6484 3.97969 41.0203 0.351563 36.5625 0.351563L8.4375 0.351563ZM38.3203 16.1719C34.8328 16.1719 31.9922 19.009 31.9922 22.5C31.9922 25.991 34.8328 28.8281 38.3203 28.8281L43.5937 28.8281C44.1773 28.8281 44.6484 28.357 44.6484 27.7734L44.6484 17.2266C44.6484 16.643 44.1773 16.1719 43.5937 16.1719L38.3203 16.1719ZM13.7109 17.9297C6.09609 17.9297 0.351562 20.6508 0.351562 24.2578C0.351562 27.8648 6.09609 30.5859 13.7109 30.5859C21.3258 30.5859 27.0703 27.8648 27.0703 24.2578C27.0703 20.6508 21.3258 17.9297 13.7109 17.9297ZM38.3203 18.2813L42.5391 18.2813L42.5391 26.7188L38.3203 26.7188C35.993 26.7188 34.1016 24.8273 34.1016 22.5C34.1016 20.1727 35.993 18.2813 38.3203 18.2813ZM13.7109 20.0391C20.148 20.0391 24.9609 22.268 24.9609 24.2578C24.9609 26.2477 20.148 28.4766 13.7109 28.4766C7.27383 28.4766 2.46094 26.2477 2.46094 24.2578C2.46094 22.268 7.27383 20.0391 13.7109 20.0391ZM1.40625 30.2344C0.822656 30.2344 0.351562 30.7055 0.351562 31.2891C0.351562 34.8961 6.09609 37.6172 13.7109 37.6172C21.3258 37.6172 27.0703 34.8961 27.0703 31.2891C27.0703 30.7055 26.5992 30.2344 26.0156 30.2344C25.432 30.2344 24.9609 30.7055 24.9609 31.2891C24.9609 33.2789 20.148 35.5078 13.7109 35.5078C7.27383 35.5078 2.46094 33.2789 2.46094 31.2891C2.46094 30.7055 1.98984 30.2344 1.40625 30.2344ZM43.5937 31.6406C43.0102 31.6406 42.5391 32.1117 42.5391 32.6953L42.5391 36.5625C42.5391 39.8566 39.8566 42.5391 36.5625 42.5391L29.5312 42.5391C28.9477 42.5391 28.4766 43.0102 28.4766 43.5938C28.4766 44.1773 28.9477 44.6484 29.5312 44.6484L36.5625 44.6484C41.0203 44.6484 44.6484 41.0203 44.6484 36.5625L44.6484 32.6953C44.6484 32.1117 44.1773 31.6406 43.5937 31.6406ZM1.40625 37.2656C0.822655 37.2656 0.351562 37.7367 0.351562 38.3203C0.351562 41.9273 6.09609 44.6484 13.7109 44.6484C21.3258 44.6484 27.0703 41.9273 27.0703 38.3203C27.0703 37.7367 26.5992 37.2656 26.0156 37.2656C25.432 37.2656 24.9609 37.7367 24.9609 38.3203C24.9609 40.3102 20.148 42.5391 13.7109 42.5391C7.27383 42.5391 2.46094 40.3102 2.46094 38.3203C2.46094 37.7367 1.98984 37.2656 1.40625 37.2656Z"/>
        </g>
    </symbol>

    <symbol id="result-add" width="45" height="45" viewBox="0 0 45 45" >
        <g clip-path="url(#clip0_38_123)">
            <path d="M8.15646 44.6485C6.22286 44.6485 4.60568 43.2774 4.28927 41.3789L1.26583 23.2383C0.386926 17.8242 3.12911 12.375 7.98068 9.94924C8.33224 9.77346 8.6838 9.59767 9.07052 9.45705L30.5158 0.421893C31.0432 0.210955 31.676 0.457049 31.8869 0.984393C32.0979 1.51174 31.8518 2.14455 31.3244 2.35549L9.87911 11.3906C9.56271 11.5313 9.21114 11.6719 8.89474 11.8477C4.85177 13.8516 2.56661 18.3867 3.34005 22.8867L6.36349 41.0274C6.50411 41.9063 7.2424 42.5391 8.15646 42.5391C9.14083 42.5391 9.94943 41.7305 9.94943 40.7461V31.9922C9.94943 31.6406 10.1252 31.3242 10.4065 31.1133C10.6877 30.9024 11.0744 30.8672 11.3908 31.0078L14.3791 32.2383C14.9065 32.4492 15.1877 33.0821 14.9768 33.6094C14.7658 34.1367 14.133 34.418 13.6057 34.2071L12.0588 33.5742V40.7461C12.0588 42.8906 10.301 44.6485 8.15646 44.6485Z" />
            <path d="M30.9376 36.9141C30.797 36.9141 30.6564 36.8789 30.5158 36.8438L10.6173 28.4414C10.09 28.2305 9.84389 27.5977 10.0548 27.0703C10.2658 26.543 10.8986 26.2969 11.4259 26.5078L31.3595 34.875C31.8869 35.086 32.133 35.7188 31.922 36.2461C31.7462 36.668 31.3595 36.9141 30.9376 36.9141Z" />
            <path d="M43.5938 20.0391H37.9688C37.3711 20.0391 36.9141 19.582 36.9141 18.9844C36.9141 18.3867 37.3711 17.9297 37.9688 17.9297H43.5938C44.1914 17.9297 44.6484 18.3867 44.6484 18.9844C44.6484 19.582 44.1914 20.0391 43.5938 20.0391Z" />
            <path d="M35.8945 15.082C35.6133 15.082 35.3672 14.9766 35.1563 14.7656C34.7344 14.3438 34.7344 13.6758 35.1563 13.2891L39.1289 9.31641C39.5508 8.89453 40.2188 8.89453 40.6055 9.31641C41.0273 9.73828 41.0273 10.4063 40.6055 10.793L36.668 14.7656C36.457 14.9766 36.1758 15.082 35.8945 15.082Z" />
            <path d="M39.9023 29.0039C39.6211 29.0039 39.375 28.8984 39.1641 28.6875L35.1563 24.7148C34.7344 24.293 34.7344 23.625 35.1563 23.2383C35.5781 22.8164 36.2461 22.8164 36.6328 23.2383L40.6055 27.2109C41.0273 27.6328 41.0273 28.3008 40.6055 28.6875C40.4297 28.8984 40.1484 29.0039 39.9023 29.0039Z"/>
            <path d="M30.375 35.1562C29.6016 34.418 28.125 28.6172 28.125 18.6328C28.125 8.64844 29.0742 3.19922 29.8828 2.46094C30.4102 2.39062 31.9922 1.93359 31.9922 1.40625C31.9922 0.808594 31.5352 0.351562 30.9375 0.351562H23.9062C22.3945 0.351562 21.375 2.17969 20.6367 6.25781C20.0391 9.5625 19.6875 13.957 19.6875 18.6328C19.6875 23.3086 20.0391 27.7031 20.6367 31.0078C21.375 35.0859 22.3945 36.9141 23.9062 36.9141H30.9375C31.5352 36.9141 31.9922 36.457 31.9922 35.8594C31.9922 35.332 30.9023 35.2266 30.375 35.1562Z" />
            <path d="M33.5039 28.6875C32.9414 28.6172 32.3789 29.0039 32.3086 29.5664C31.7813 32.8711 31.2188 34.1719 30.9375 34.6289C30.2695 33.6094 29.2852 29.7422 28.9336 23.2031C31.2539 22.957 33.0469 20.9883 33.0469 18.6328C33.0469 16.2773 31.2539 14.3086 28.9336 14.0977C29.25 7.55859 30.2695 3.69141 30.9375 2.67188C31.2539 3.16406 31.8516 4.53516 32.3789 8.15625C32.4492 8.71875 33.0117 9.14062 33.5742 9.03516C34.1367 8.96484 34.5586 8.40234 34.4531 7.83984C33.9609 4.35938 33.1172 0.351562 30.9375 0.351562C29.4258 0.351562 28.4062 2.17969 27.668 6.25781C27.0703 9.5625 26.7188 13.957 26.7188 18.6328C26.7188 23.3086 27.0703 27.7031 27.668 31.0078C28.4062 35.0859 29.4258 36.9141 30.9375 36.9141C32.5898 36.9141 33.6445 34.7344 34.418 29.8828C34.4883 29.3203 34.1016 28.7578 33.5039 28.6875Z" />
        </g>
    </symbol>

    <symbol id="result-analitics" width="45" height="45" viewBox="0 0 45 45" >
        <g clip-path="url(#clip0_38_506)">
            <path d="M43.5938 44.6484H1.40625C0.808594 44.6484 0.351562 44.1914 0.351562 43.5938C0.351562 42.9961 0.808594 42.5391 1.40625 42.5391H42.5391V18.9844C42.5391 18.3867 42.9961 17.9297 43.5938 17.9297C44.1914 17.9297 44.6484 18.3867 44.6484 18.9844V43.5938C44.6484 44.1914 44.1914 44.6484 43.5938 44.6484Z" />
            <path d="M38.3203 41.1328C37.7227 41.1328 37.2656 40.6758 37.2656 40.0781V26.0156C37.2656 25.418 37.7227 24.9609 38.3203 24.9609C38.918 24.9609 39.375 25.418 39.375 26.0156V40.0781C39.375 40.6758 38.918 41.1328 38.3203 41.1328Z" />
            <path d="M33.0469 41.1328C32.4492 41.1328 31.9922 40.6758 31.9922 40.0781V33.0469C31.9922 32.4492 32.4492 31.9922 33.0469 31.9922C33.6445 31.9922 34.1016 32.4492 34.1016 33.0469V40.0781C34.1016 40.6758 33.6445 41.1328 33.0469 41.1328Z" />
            <path d="M27.7734 41.1328C27.1758 41.1328 26.7188 40.6758 26.7188 40.0781V36.5625C26.7188 35.9648 27.1758 35.5078 27.7734 35.5078C28.3711 35.5078 28.8281 35.9648 28.8281 36.5625V40.0781C28.8281 40.6758 28.3711 41.1328 27.7734 41.1328Z" />
            <path d="M22.5 41.1328C22.2188 41.1328 21.9375 41.0273 21.7617 40.8164C21.5508 40.6055 21.4453 40.3594 21.4453 40.0781C21.4453 40.0078 21.4453 39.9375 21.4805 39.8672C21.4805 39.7969 21.5156 39.7266 21.5508 39.6563C21.5859 39.5859 21.6211 39.5508 21.6562 39.4805C21.6914 39.4102 21.7266 39.375 21.7969 39.3047C22.1836 38.918 22.8867 38.918 23.2734 39.3047C23.4844 39.5156 23.5898 39.7617 23.5898 40.043C23.5898 40.3242 23.4844 40.6055 23.2734 40.7812C23.2383 40.8164 23.168 40.8867 23.0977 40.9219C23.0273 40.957 22.9922 40.9922 22.9219 41.0273C22.8516 41.0625 22.7812 41.0625 22.7109 41.0977C22.6406 41.1328 22.5703 41.1328 22.5 41.1328Z" />
            <path d="M43.5938 0.351562H33.0469C32.4492 0.351562 31.9922 0.808594 31.9922 1.40625V8.4375C31.9922 9.03516 32.4492 9.49219 33.0469 9.49219H40.0781C40.6758 9.49219 41.1328 9.03516 41.1328 8.4375C41.1328 7.83984 40.6758 7.38281 40.0781 7.38281H34.1016V2.46094H42.5391V8.26172C36.3516 25.6289 19.8281 37.2656 1.40625 37.2656C0.808594 37.2656 0.351562 37.7227 0.351562 38.3203C0.351562 38.918 0.808594 39.375 1.40625 39.375C20.7773 39.375 38.1094 27.1055 44.5781 8.82422V8.78906C44.6133 8.68359 44.6484 8.54297 44.6484 8.4375V1.40625C44.6484 0.808594 44.1914 0.351562 43.5938 0.351562Z" />
            <path d="M25.0315 14.0977C25.2072 14.4844 25.594 14.7656 26.0158 14.7656H34.8049C35.4026 14.7656 35.8596 14.3086 35.8596 13.7109V11.9531C35.8596 11.3555 35.4026 10.8984 34.8049 10.8984C34.2072 10.8984 33.7502 11.3555 33.7502 11.9531V12.6562H27.9846C28.6877 11.1094 28.6877 9.28125 27.9846 7.73438H29.5315C30.1291 7.73438 30.5861 7.27734 30.5861 6.67969C30.5861 6.08203 30.1291 5.625 29.5315 5.625H26.0158C25.594 5.625 25.2072 5.87109 25.0315 6.29297C24.8557 6.67969 24.9611 7.13672 25.2776 7.45313C26.7893 8.96484 26.7893 11.4609 25.2776 13.0078C24.9611 13.2539 24.8908 13.7109 25.0315 14.0977Z" />
            <path d="M12.0242 6.73516L7.49297 11.2664C7.22109 11.5383 7.22109 11.9687 7.49297 12.218C7.76484 12.4898 8.19531 12.4898 8.44453 12.218L11.8203 8.84219V22.1641C11.8203 22.5492 12.1148 22.8438 12.5 22.8438C12.8852 22.8438 13.1797 22.5492 13.1797 22.1641V8.84219L16.5555 12.218C16.6914 12.3539 16.8727 12.4219 17.0312 12.4219C17.1898 12.4219 17.3711 12.3539 17.507 12.218C17.7789 11.9461 17.7789 11.5156 17.507 11.2664L12.9758 6.73516C12.7039 6.46328 12.2961 6.46328 12.0242 6.73516Z" />
        </g>
    </symbol>

    <symbol id="socialVK" viewBox="0 0 512 512">
        <g>
            <path d="M274 363c5-1 14-3 14-15 0 0-1-30 13-34s32 29 51 42c14 9 25 8 25 8l51-1s26-2 14-23c-1-2-9-15-39-42-31-30-26-25 11-76 23-31 33-50 30-57-4-7-20-6-20-6h-57c-6 0-9 1-12 6 0 0-9 25-21 45-25 43-35 45-40 42-9-5-7-24-7-37 0-45 7-61-13-65-13-2-59-4-73 3-7 4-11 11-8 12 3 0 12 1 17 7 8 13 9 75-2 81-15 11-53-62-62-86-2-6-5-7-12-9H79c-6 0-15 1-11 13 27 56 83 193 184 192z"/>
        </g>
    </symbol>

    <symbol id="socialINSTA" viewBox="0 0 551.034 551.034">
        <g id="XMLID_13_">
            <path id="XMLID_17_" d="M386.878,0H164.156C73.64,0,0,73.64,0,164.156v222.722
                c0,90.516,73.64,164.156,164.156,164.156h222.722c90.516,0,164.156-73.64,164.156-164.156V164.156
                C551.033,73.64,477.393,0,386.878,0z M495.6,386.878c0,60.045-48.677,108.722-108.722,108.722H164.156
                c-60.045,0-108.722-48.677-108.722-108.722V164.156c0-60.046,48.677-108.722,108.722-108.722h222.722
                c60.045,0,108.722,48.676,108.722,108.722L495.6,386.878L495.6,386.878z"/>
            <path id="XMLID_81_" d="M275.517,133C196.933,133,133,196.933,133,275.516
                s63.933,142.517,142.517,142.517S418.034,354.1,418.034,275.516S354.101,133,275.517,133z M275.517,362.6
                c-48.095,0-87.083-38.988-87.083-87.083s38.989-87.083,87.083-87.083c48.095,0,87.083,38.988,87.083,87.083
                C362.6,323.611,323.611,362.6,275.517,362.6z"/>
            <circle id="XMLID_83_" cx="418.306" cy="134.072" r="34.149"/>
        </g>
    </symbol>

    <symbol id="closepopup" viewBox="0 0 17 17" width="17" height="17">
        <g>
            <path d="M16.17 1L1 16.17" stroke-width="2" stroke-miterlimit="10"/>
            <path d="M16.17 16.17L1 1" stroke-width="2" stroke-miterlimit="10"/>
        </g>
    </symbol>

</svg>
