<?xml version="1.0" standalone="no"?>
<!DOCTYPE svg PUBLIC "-//W3C//DTD SVG 20010904//EN"
 "http://www.w3.org/TR/2001/REC-SVG-20010904/DTD/svg10.dtd">
<svg version="1.0" xmlns="http://www.w3.org/2000/svg"
 width="271.000000pt" height="271.000000pt" viewBox="0 0 271.000000 271.000000"
 preserveAspectRatio="xMidYMid meet">
<metadata>
Created by potrace 1.14, written by Peter Selinger 2001-2017
</metadata>
<g transform="translate(0.000000,271.000000) scale(0.100000,-0.100000)"
fill="#000000" stroke="none">
<path d="M832 2684 c-42 -33 -78 -105 -87 -174 -8 -61 -9 -249 -1 -295 3 -17
8 -55 11 -85 9 -74 38 -183 69 -258 14 -35 22 -70 19 -78 -3 -8 -31 -21 -62
-30 -31 -8 -67 -19 -81 -24 -22 -8 -319 -94 -360 -105 -8 -2 -55 -16 -105 -31
-50 -14 -94 -27 -100 -29 -85 -20 -143 -108 -132 -198 7 -53 34 -137 50 -158
38 -50 122 -72 183 -48 l28 10 -26 -24 c-61 -56 -71 -111 -44 -225 29 -115
101 -172 193 -152 39 9 58 5 29 -6 -20 -8 -52 -68 -59 -112 -6 -34 14 -124 39
-182 29 -68 117 -102 194 -76 23 8 23 7 -6 -22 -34 -33 -57 -102 -49 -142 27
-139 49 -181 106 -210 46 -24 78 -25 144 -4 28 8 118 35 200 59 83 24 191 55
240 70 50 14 115 39 145 54 30 16 141 73 245 126 105 54 236 122 292 151 l103
52 10 -37 c19 -72 79 -123 146 -123 47 0 423 110 462 136 18 11 42 40 53 64
28 57 26 73 -36 317 -20 77 -38 147 -40 155 -2 8 -24 98 -50 200 -26 102 -48
192 -50 200 -2 8 -45 177 -95 375 -51 198 -96 378 -101 400 -31 146 -80 205
-170 205 -26 0 -167 -35 -229 -58 -8 -3 -19 -6 -25 -7 -63 -15 -189 -57 -205
-68 -47 -33 -65 -69 -65 -132 0 -33 4 -79 9 -101 9 -46 13 -45 -86 -29 -87 15
-257 112 -318 181 -66 76 -164 256 -185 339 -15 62 -45 116 -77 135 -45 27
-86 25 -126 -6z"/>
</g>
</svg>
