<svg width="26" height="26" viewBox="0 0 26 26" fill="none" xmlns="http://www.w3.org/2000/svg">
<path d="M12.1875 1.625C6.3667 1.625 1.625 6.3667 1.625 12.1875C1.625 18.0083 6.3667 22.75 12.1875 22.75C18.0083 22.75 22.75 18.0083 22.75 12.1875C22.75 6.3667 18.0083 1.625 12.1875 1.625ZM12.1875 3.25C17.1323 3.25 21.125 7.24268 21.125 12.1875C21.125 17.1323 17.1323 21.125 12.1875 21.125C7.24268 21.125 3.25 17.1323 3.25 12.1875C3.25 7.24268 7.24268 3.25 12.1875 3.25ZM8.125 8.16309C7.22998 8.16309 6.5 8.88672 6.5 9.78809C6.5 10.6831 7.22998 11.4131 8.125 11.4131C9.02002 11.4131 9.75 10.6831 9.75 9.78809C9.75 8.88672 9.02002 8.16309 8.125 8.16309ZM16.25 8.16309C15.355 8.16309 14.625 8.88672 14.625 9.78809C14.625 10.6831 15.355 11.4131 16.25 11.4131C17.145 11.4131 17.875 10.6831 17.875 9.78809C17.875 8.88672 17.145 8.16309 16.25 8.16309ZM15.4883 14.5361C15.4883 14.5361 15.355 14.917 14.8662 15.3613C14.3711 15.812 13.584 16.2817 12.1875 16.2817C10.7339 16.2817 9.95312 15.812 9.4834 15.374C9.00732 14.9297 8.89307 14.5615 8.89307 14.5615L7.35693 15.0947C7.35693 15.0947 7.62988 15.8628 8.36621 16.5547C9.10889 17.2466 10.3594 17.9067 12.1875 17.9067C13.9712 17.9067 15.2153 17.2466 15.958 16.561C16.707 15.8755 17.0117 15.1201 17.0117 15.1201L15.4883 14.5361Z" fill="#F4F4F4"/>
</svg>
