<svg width="18" height="18" viewBox="0 0 18 18" fill="none" xmlns="http://www.w3.org/2000/svg">
<path d="M7.14056 1.50507C6.89372 1.48711 6.64078 1.51234 6.39276 1.58564L5.50507 1.84857C4.55915 2.12833 3.82006 2.87884 3.57001 3.82611C3.01479 5.93277 3.64994 8.4263 5.30292 11.2331C6.95357 14.036 8.83444 15.8174 10.9587 16.3989C11.9153 16.6607 12.947 16.4106 13.6716 15.7375L14.3469 15.1113C15.1025 14.4097 15.2152 13.2411 14.6047 12.4108L13.6291 11.0859C13.1061 10.3756 12.1843 10.0732 11.3366 10.3278L9.81024 10.7849C9.74617 10.8036 9.59284 10.7163 9.45941 10.601L9.45868 10.6003C9.22103 10.3936 8.89176 9.97596 8.53949 9.3786V9.37787C8.16176 8.73635 8.00066 8.3168 7.93597 8.06903C7.87126 7.82116 7.88697 7.791 7.89642 7.70722C7.90134 7.66541 7.9212 7.62667 7.95502 7.59589L7.95575 7.59516L9.09393 6.55439C9.74602 5.95827 9.94287 5.00563 9.57513 4.20404L8.88885 2.70697V2.70624C8.56575 2.00195 7.88091 1.55893 7.14056 1.50507ZM7.05926 2.62714C7.40359 2.65287 7.72066 2.8594 7.86566 3.17572L8.55267 4.67279C8.71893 5.0352 8.63556 5.44992 8.33514 5.72455L7.19696 6.76459C6.96363 6.97734 6.81442 7.2674 6.77875 7.58051V7.58124C6.76945 7.66358 6.74749 7.96978 6.84759 8.35321C6.9477 8.73665 7.15436 9.24381 7.56976 9.94916H7.57049C7.95809 10.6065 8.32441 11.106 8.72113 11.4506H8.72186C8.8507 11.5622 9.39066 12.0797 10.1252 11.8652L10.1274 11.8644L11.6603 11.4052C12.0584 11.2856 12.484 11.4284 12.7231 11.7531L13.6987 13.0781C13.9749 13.4544 13.9267 13.9661 13.5815 14.2866L12.9062 14.9135C12.4743 15.3149 11.833 15.4715 11.2553 15.3134C9.53805 14.8434 7.83874 13.3219 6.27264 10.6625C4.70437 7.99959 4.21387 5.79707 4.65765 4.11322C4.80435 3.55749 5.25382 3.09618 5.8244 2.92743L6.71136 2.66449C6.8269 2.63035 6.94449 2.61856 7.05926 2.62714Z" fill="url(#paint0_linear_38_314)"/>
<defs>
<linearGradient id="paint0_linear_38_314" x1="4.00757" y1="16.5008" x2="14.4389" y2="16.5008" gradientUnits="userSpaceOnUse">
<stop stop-color="#FF641E"/>
<stop offset="1" stop-color="#FF9447"/>
</linearGradient>
</defs>
</svg>
