<svg width="255" height="25" viewBox="0 0 255 25" fill="none" xmlns="http://www.w3.org/2000/svg">
<g clip-path="url(#clip0_38_316)">
<path d="M41.3199 20.28C40.1866 20.28 39.0866 20.14 38.0199 19.86C36.9532 19.58 36.0866 19.2067 35.4199 18.74L36.7199 15.82C37.3466 16.2333 38.0732 16.5667 38.8999 16.82C39.7266 17.0733 40.5399 17.2 41.3399 17.2C42.8599 17.2 43.6199 16.82 43.6199 16.06C43.6199 15.66 43.3999 15.3667 42.9599 15.18C42.5332 14.98 41.8399 14.7733 40.8799 14.56C39.8266 14.3333 38.9466 14.0933 38.2399 13.84C37.5332 13.5733 36.9266 13.1533 36.4199 12.58C35.9132 12.0067 35.6599 11.2333 35.6599 10.26C35.6599 9.40664 35.8932 8.63997 36.3599 7.95997C36.8266 7.26664 37.5199 6.71997 38.4399 6.31997C39.3732 5.91997 40.5132 5.71997 41.8599 5.71997C42.7799 5.71997 43.6866 5.82664 44.5799 6.03997C45.4732 6.23997 46.2599 6.53997 46.9399 6.93997L45.7199 9.87997C44.3866 9.15997 43.0932 8.79997 41.8399 8.79997C41.0532 8.79997 40.4799 8.91997 40.1199 9.15997C39.7599 9.38664 39.5799 9.68664 39.5799 10.06C39.5799 10.4333 39.7932 10.7133 40.2199 10.9C40.6466 11.0867 41.3332 11.28 42.2799 11.48C43.3466 11.7067 44.2266 11.9533 44.9199 12.22C45.6266 12.4733 46.2332 12.8867 46.7399 13.46C47.2599 14.02 47.5199 14.7867 47.5199 15.76C47.5199 16.6 47.2866 17.36 46.8199 18.04C46.3532 18.72 45.6532 19.2667 44.7199 19.68C43.7866 20.08 42.6532 20.28 41.3199 20.28ZM61.9891 20L61.9491 12.58L58.3491 18.62H56.5891L53.0091 12.78V20H49.3491V5.99997H52.6091L57.5291 14.08L62.3291 5.99997H65.5891L65.6291 20H61.9891ZM81.0712 20L81.0312 12.58L77.4312 18.62H75.6712L72.0912 12.78V20H68.4312V5.99997H71.6912L76.6112 14.08L81.4112 5.99997H84.6712L84.7112 20H81.0712ZM99.0935 14.64H97.2935V20H93.3535V5.99997H97.2935V11.44H99.1935L102.534 5.99997H106.694L102.314 12.76L106.734 20H102.274L99.0935 14.64ZM121.636 5.99997L115.836 16.82C115.223 17.98 114.469 18.86 113.576 19.46C112.696 20.06 111.729 20.36 110.676 20.36C109.903 20.36 109.076 20.1867 108.196 19.84L109.136 16.92C109.683 17.08 110.149 17.16 110.536 17.16C110.923 17.16 111.263 17.0733 111.556 16.9C111.863 16.7267 112.143 16.4533 112.396 16.08L106.956 5.99997H111.136L114.396 12.76L117.776 5.99997H121.636ZM129.306 5.99997C130.573 5.99997 131.673 6.2133 132.606 6.63997C133.54 7.0533 134.26 7.6533 134.766 8.43997C135.273 9.2133 135.526 10.1267 135.526 11.18C135.526 12.2333 135.273 13.1467 134.766 13.92C134.26 14.6933 133.54 15.2933 132.606 15.72C131.673 16.1333 130.573 16.34 129.306 16.34H126.866V20H122.906V5.99997H129.306ZM129.066 13.22C129.88 13.22 130.493 13.0467 130.906 12.7C131.32 12.34 131.526 11.8333 131.526 11.18C131.526 10.5267 131.32 10.02 130.906 9.65997C130.493 9.29997 129.88 9.11997 129.066 9.11997H126.866V13.22H129.066ZM146.277 17.28H140.357L139.257 20H135.217L141.397 5.99997H145.297L151.497 20H147.377L146.277 17.28ZM145.117 14.36L143.317 9.87997L141.517 14.36H145.117ZM163.678 9.13997H159.398V20H155.498V9.13997H151.198V5.99997H163.678V9.13997ZM172.189 20.28C170.709 20.28 169.375 19.9667 168.189 19.34C167.015 18.7133 166.089 17.8467 165.409 16.74C164.742 15.6333 164.409 14.3867 164.409 13C164.409 11.6133 164.742 10.3667 165.409 9.25997C166.089 8.1533 167.015 7.28664 168.189 6.65997C169.375 6.0333 170.709 5.71997 172.189 5.71997C173.669 5.71997 174.995 6.0333 176.169 6.65997C177.355 7.28664 178.282 8.1533 178.949 9.25997C179.629 10.3667 179.969 11.6133 179.969 13C179.969 14.3867 179.629 15.6333 178.949 16.74C178.282 17.8467 177.355 18.7133 176.169 19.34C174.995 19.9667 173.669 20.28 172.189 20.28ZM172.189 17C172.895 17 173.535 16.8333 174.109 16.5C174.682 16.1667 175.135 15.7 175.469 15.1C175.802 14.4867 175.969 13.7867 175.969 13C175.969 12.2133 175.802 11.52 175.469 10.92C175.135 10.3067 174.682 9.8333 174.109 9.49997C173.535 9.16664 172.895 8.99997 172.189 8.99997C171.482 8.99997 170.842 9.16664 170.269 9.49997C169.695 9.8333 169.242 10.3067 168.909 10.92C168.575 11.52 168.409 12.2133 168.409 13C168.409 13.7867 168.575 14.4867 168.909 15.1C169.242 15.7 169.695 16.1667 170.269 16.5C170.842 16.8333 171.482 17 172.189 17ZM188.486 5.99997C189.753 5.99997 190.853 6.2133 191.786 6.63997C192.719 7.0533 193.439 7.6533 193.946 8.43997C194.453 9.2133 194.706 10.1267 194.706 11.18C194.706 12.2333 194.453 13.1467 193.946 13.92C193.439 14.6933 192.719 15.2933 191.786 15.72C190.853 16.1333 189.753 16.34 188.486 16.34H186.046V20H182.086V5.99997H188.486ZM188.246 13.22C189.059 13.22 189.673 13.0467 190.086 12.7C190.499 12.34 190.706 11.8333 190.706 11.18C190.706 10.5267 190.499 10.02 190.086 9.65997C189.673 9.29997 189.059 9.11997 188.246 9.11997H186.046V13.22H188.246ZM203.515 20.28C202.049 20.28 200.729 19.9733 199.555 19.36C198.395 18.7333 197.482 17.8667 196.815 16.76C196.149 15.6533 195.815 14.4 195.815 13C195.815 11.6 196.149 10.3467 196.815 9.23997C197.482 8.1333 198.395 7.2733 199.555 6.65997C200.729 6.0333 202.049 5.71997 203.515 5.71997C204.795 5.71997 205.949 5.94664 206.975 6.39997C208.002 6.8533 208.855 7.50664 209.535 8.35997L207.015 10.64C206.109 9.54664 205.009 8.99997 203.715 8.99997C202.955 8.99997 202.275 9.16664 201.675 9.49997C201.089 9.8333 200.629 10.3067 200.295 10.92C199.975 11.52 199.815 12.2133 199.815 13C199.815 13.7867 199.975 14.4867 200.295 15.1C200.629 15.7 201.089 16.1667 201.675 16.5C202.275 16.8333 202.955 17 203.715 17C205.009 17 206.109 16.4533 207.015 15.36L209.535 17.64C208.855 18.4933 208.002 19.1467 206.975 19.6C205.949 20.0533 204.795 20.28 203.515 20.28ZM222.487 9.13997H218.207V20H214.307V9.13997H210.007V5.99997H222.487V9.13997ZM234.513 12.68C235.339 12.9467 235.966 13.36 236.393 13.92C236.833 14.48 237.053 15.1733 237.053 16C237.053 17.24 236.566 18.22 235.593 18.94C234.633 19.6467 233.266 20 231.493 20H224.313V5.99997H231.113C232.793 5.99997 234.093 6.31997 235.013 6.95997C235.946 7.58664 236.413 8.47997 236.413 9.63997C236.413 10.32 236.246 10.92 235.913 11.44C235.593 11.96 235.126 12.3733 234.513 12.68ZM228.213 11.6H230.733C231.853 11.6 232.413 11.14 232.413 10.22C232.413 9.29997 231.853 8.83997 230.733 8.83997H228.213V11.6ZM231.333 17.16C232.479 17.16 233.053 16.6733 233.053 15.7C233.053 14.7533 232.479 14.28 231.333 14.28H228.213V17.16H231.333ZM246.075 20.28C244.595 20.28 243.262 19.9667 242.075 19.34C240.902 18.7133 239.975 17.8467 239.295 16.74C238.629 15.6333 238.295 14.3867 238.295 13C238.295 11.6133 238.629 10.3667 239.295 9.25997C239.975 8.1533 240.902 7.28664 242.075 6.65997C243.262 6.0333 244.595 5.71997 246.075 5.71997C247.555 5.71997 248.882 6.0333 250.055 6.65997C251.242 7.28664 252.169 8.1533 252.835 9.25997C253.515 10.3667 253.855 11.6133 253.855 13C253.855 14.3867 253.515 15.6333 252.835 16.74C252.169 17.8467 251.242 18.7133 250.055 19.34C248.882 19.9667 247.555 20.28 246.075 20.28ZM246.075 17C246.782 17 247.422 16.8333 247.995 16.5C248.569 16.1667 249.022 15.7 249.355 15.1C249.689 14.4867 249.855 13.7867 249.855 13C249.855 12.2133 249.689 11.52 249.355 10.92C249.022 10.3067 248.569 9.8333 247.995 9.49997C247.422 9.16664 246.782 8.99997 246.075 8.99997C245.369 8.99997 244.729 9.16664 244.155 9.49997C243.582 9.8333 243.129 10.3067 242.795 10.92C242.462 11.52 242.295 12.2133 242.295 13C242.295 13.7867 242.462 14.4867 242.795 15.1C243.129 15.7 243.582 16.1667 244.155 16.5C244.729 16.8333 245.369 17 246.075 17Z" fill="white"/>
<path d="M1.08781 10.7876L7.62539 9.01947C7.82093 8.96877 7.90802 8.73907 7.80971 8.56259C6.87465 6.88388 6.72912 4.39578 6.86762 2.92764C7.0162 1.3081 8.08599 0.639486 8.94776 1.18923C9.60152 1.5904 9.34893 2.66019 10.909 4.78491C11.5944 5.72331 12.7137 6.31005 13.7573 6.67786C14.5365 6.9525 15.3857 6.9157 16.1837 6.7016C16.9563 6.49359 17.7438 6.95419 17.9518 7.71196L18.1449 8.41029C18.2189 8.68136 18.2111 8.95243 18.1366 9.19839C18.0842 9.37141 18.2567 9.61857 18.4313 9.57157C18.5276 9.54564 18.6267 9.6026 18.6528 9.69886L20.9722 18.2553C21.0121 18.4027 20.9346 18.5547 20.7897 18.603L12.2314 22.689C12.1868 22.7038 12.1423 22.7038 12.0977 22.7187C12.0175 22.7454 11.9377 22.7744 11.8562 22.7965L6.94191 24.1302C6.16929 24.3382 5.38181 23.8776 5.17379 23.1198L4.98064 22.4215C4.77262 21.6489 5.23323 20.8614 5.99099 20.6534L5.29266 20.8465C4.52004 21.0546 3.73255 20.6088 3.52454 19.8362L3.33138 19.1379C3.12337 18.3652 3.58397 17.5778 4.34174 17.3697L3.6434 17.5629C2.87078 17.7709 2.0833 17.3103 1.87529 16.5526L1.68213 15.8542C1.47412 15.0816 1.93472 14.2941 2.69249 14.0861L1.99415 14.2793C1.22153 14.4873 0.434048 14.0267 0.226034 13.2689L0.0328789 12.5706C-0.130561 11.7831 0.330041 10.9956 1.08781 10.7876Z" fill="#EFC492"/>
<path d="M15.946 4.36891L19.4228 3.43285C20.1954 3.22483 20.9829 3.68544 21.1909 4.4432L21.3098 4.85923L21.4286 5.31983L24.7123 17.4144L24.8312 17.8304L24.95 18.291C25.158 19.0636 24.6974 19.8511 23.9397 20.0591L20.4629 20.9952C19.6902 21.2032 18.9028 20.7574 18.6947 19.9848L18.5759 19.5242L18.457 19.1082L15.1734 7.01366L15.0545 6.55305L14.9356 6.13703C14.7128 5.36441 15.1734 4.57693 15.946 4.36891Z" fill="white"/>
<path d="M19.6158 18.2464C19.7198 18.603 20.0764 18.8258 20.4479 18.7218C20.8045 18.6178 21.0125 18.2464 20.9233 17.8898L17.8923 6.68672C17.7883 6.33013 17.4317 6.12212 17.0602 6.21126C16.7036 6.31527 16.4807 6.67187 16.5847 7.04332L19.6158 18.2464Z" fill="white"/>
</g>
<defs>
<clipPath id="clip0_38_316">
<rect width="255" height="25" fill="white"/>
</clipPath>
</defs>
</svg>
