<svg width="30" height="30" viewBox="0 0 30 30" fill="none" xmlns="http://www.w3.org/2000/svg">
<path d="M28.2001 20.3801L18.6101 4.48006C18.2217 3.87521 17.6876 3.37763 17.0569 3.03302C16.4261 2.68841 15.7188 2.50781 15 2.50781C14.2813 2.50781 13.574 2.68841 12.9432 3.03302C12.3125 3.37763 11.7784 3.87521 11.39 4.48006L1.80005 20.3701C1.46175 20.9348 1.2781 21.5787 1.26757 22.237C1.25704 22.8953 1.41999 23.5447 1.74005 24.1201C2.10967 24.7664 2.64409 25.3031 3.28881 25.6756C3.93354 26.048 4.66549 26.2428 5.41005 26.2401H24.6C25.3397 26.2478 26.0684 26.0606 26.7126 25.6972C27.3569 25.3338 27.8941 24.8071 28.2701 24.1701C28.5995 23.5887 28.7676 22.93 28.7571 22.2619C28.7465 21.5938 28.5577 20.9407 28.21 20.3701L28.2001 20.3801ZM26.07 22.9401C25.9199 23.1965 25.7029 23.4073 25.4422 23.55C25.1815 23.6926 24.887 23.7618 24.59 23.7501H5.40005C5.10145 23.7636 4.80483 23.6954 4.54222 23.5526C4.27961 23.4098 4.06101 23.198 3.91005 22.9401C3.80034 22.75 3.74258 22.5345 3.74258 22.3151C3.74258 22.0956 3.80034 21.8801 3.91005 21.6901L13.51 5.77006C13.6824 5.54029 13.9058 5.35381 14.1627 5.22536C14.4196 5.09692 14.7028 5.03006 14.99 5.03006C15.2773 5.03006 15.5605 5.09692 15.8174 5.22536C16.0743 5.35381 16.2977 5.54029 16.47 5.77006L26.05 21.6701C26.1666 21.8606 26.2299 22.079 26.2334 22.3023C26.2369 22.5257 26.1805 22.7459 26.07 22.9401Z" fill="#C2C2C2"/>
<path d="M15 21.25C15.3315 21.25 15.6495 21.1183 15.8839 20.8839C16.1183 20.6495 16.25 20.3315 16.25 20C16.25 19.6685 16.1183 19.3505 15.8839 19.1161C15.6495 18.8817 15.3315 18.75 15 18.75C14.6685 18.75 14.3505 18.8817 14.1161 19.1161C13.8817 19.3505 13.75 19.6685 13.75 20C13.75 20.3315 13.8817 20.6495 14.1161 20.8839C14.3505 21.1183 14.6685 21.25 15 21.25ZM15 10C14.6685 10 14.3505 10.1317 14.1161 10.3661C13.8817 10.6005 13.75 10.9185 13.75 11.25V16.25C13.75 16.5815 13.8817 16.8995 14.1161 17.1339C14.3505 17.3683 14.6685 17.5 15 17.5C15.3315 17.5 15.6495 17.3683 15.8839 17.1339C16.1183 16.8995 16.25 16.5815 16.25 16.25V11.25C16.25 10.9185 16.1183 10.6005 15.8839 10.3661C15.6495 10.1317 15.3315 10 15 10Z" fill="#C2C2C2"/>
</svg>
