<svg width="45" height="45" viewBox="0 0 45 45" fill="none" xmlns="http://www.w3.org/2000/svg">
<path d="M36.5625 19.3359H27.0703C26.4727 19.3359 26.0156 19.793 26.0156 20.3906V30.9375C26.0156 31.5352 26.4727 31.9922 27.0703 31.9922H36.5625C37.1602 31.9922 37.6172 31.5352 37.6172 30.9375V20.3906C37.6172 19.793 37.1602 19.3359 36.5625 19.3359Z" fill="#FF9447"/>
<path d="M40.0781 44.6484H4.92188C2.39062 44.6484 0.351562 42.6094 0.351562 40.0781V14.4141C0.351562 13.8164 0.808594 13.3594 1.40625 13.3594C2.00391 13.3594 2.46094 13.8164 2.46094 14.4141V40.0781C2.46094 41.4492 3.55078 42.5391 4.92188 42.5391H40.0781C41.4492 42.5391 42.5391 41.4492 42.5391 40.0781V4.92188C42.5391 3.55078 41.4492 2.46094 40.0781 2.46094H4.92188C3.55078 2.46094 2.46094 3.55078 2.46094 4.92188V8.78906H39.0234C39.6211 8.78906 40.0781 9.24609 40.0781 9.84375C40.0781 10.4414 39.6211 10.8984 39.0234 10.8984H1.40625C0.808594 10.8984 0.351562 10.4414 0.351562 9.84375V4.92188C0.351562 2.39062 2.39062 0.351562 4.92188 0.351562H40.0781C42.6094 0.351562 44.6484 2.39062 44.6484 4.92188V40.0781C44.6484 42.6094 42.6094 44.6484 40.0781 44.6484Z" fill="#FF9447"/>
<path d="M5.625 6.67969C6.20749 6.67969 6.67969 6.20749 6.67969 5.625C6.67969 5.04251 6.20749 4.57031 5.625 4.57031C5.04251 4.57031 4.57031 5.04251 4.57031 5.625C4.57031 6.20749 5.04251 6.67969 5.625 6.67969Z" fill="#FF9447"/>
<path d="M9.14062 6.67969C9.72311 6.67969 10.1953 6.20749 10.1953 5.625C10.1953 5.04251 9.72311 4.57031 9.14062 4.57031C8.55814 4.57031 8.08594 5.04251 8.08594 5.625C8.08594 6.20749 8.55814 6.67969 9.14062 6.67969Z" fill="#FF9447"/>
<path d="M12.6562 6.67969C13.2387 6.67969 13.7109 6.20749 13.7109 5.625C13.7109 5.04251 13.2387 4.57031 12.6562 4.57031C12.0738 4.57031 11.6016 5.04251 11.6016 5.625C11.6016 6.20749 12.0738 6.67969 12.6562 6.67969Z" fill="#FF9447"/>
<path d="M21.4453 21.4453H8.4375C7.83984 21.4453 7.38281 20.9883 7.38281 20.3906C7.38281 19.793 7.83984 19.3359 8.4375 19.3359H21.4453C22.043 19.3359 22.5 19.793 22.5 20.3906C22.5 20.9883 22.043 21.4453 21.4453 21.4453Z" fill="#FF9447"/>
<path d="M21.4453 26.7188H8.4375C7.83984 26.7188 7.38281 26.2617 7.38281 25.6641C7.38281 25.0664 7.83984 24.6094 8.4375 24.6094H21.4453C22.043 24.6094 22.5 25.0664 22.5 25.6641C22.5 26.2617 22.043 26.7188 21.4453 26.7188Z" fill="#FF9447"/>
<path d="M17.9297 31.9922H8.4375C7.83984 31.9922 7.38281 31.5352 7.38281 30.9375C7.38281 30.3398 7.83984 29.8828 8.4375 29.8828H17.9297C18.5273 29.8828 18.9844 30.3398 18.9844 30.9375C18.9844 31.5352 18.5273 31.9922 17.9297 31.9922Z" fill="#FF9447"/>
<path d="M21.4453 31.9922C21.375 31.9922 21.3047 31.9922 21.2344 31.957C21.1641 31.957 21.0937 31.9219 21.0234 31.8867C20.9531 31.8516 20.918 31.8164 20.8477 31.7813C20.7773 31.7461 20.7422 31.7109 20.6719 31.6406C20.4961 31.5 20.3906 31.2188 20.3906 30.9375C20.3906 30.8672 20.3906 30.7969 20.4258 30.7266C20.4258 30.6563 20.4609 30.5859 20.4961 30.5156C20.5312 30.4453 20.5664 30.4102 20.6016 30.3398C20.6367 30.2695 20.6719 30.2344 20.7422 30.1641C21.1289 29.7773 21.832 29.7773 22.2187 30.1641C22.2539 30.1992 22.3242 30.2695 22.3594 30.3398C22.3945 30.4102 22.4297 30.4453 22.4648 30.5156C22.5 30.5859 22.5 30.6563 22.5352 30.7266C22.5352 30.7969 22.5703 30.8672 22.5703 30.9375C22.5703 31.2188 22.4648 31.5 22.2539 31.6758C22.0078 31.8867 21.7266 31.9922 21.4453 31.9922Z" fill="#FF9447"/>
</svg>
