<svg width="45" height="45" viewBox="0 0 45 45" fill="none" xmlns="http://www.w3.org/2000/svg">
<path d="M8.15646 44.6485C6.22286 44.6485 4.60568 43.2774 4.28927 41.3789L1.26583 23.2383C0.386926 17.8242 3.12911 12.375 7.98068 9.94924C8.33224 9.77346 8.6838 9.59767 9.07052 9.45705L30.5158 0.421893C31.0432 0.210955 31.676 0.457049 31.8869 0.984393C32.0979 1.51174 31.8518 2.14455 31.3244 2.35549L9.87911 11.3906C9.56271 11.5313 9.21114 11.6719 8.89474 11.8477C4.85177 13.8516 2.56661 18.3867 3.34005 22.8867L6.36349 41.0274C6.50411 41.9063 7.2424 42.5391 8.15646 42.5391C9.14083 42.5391 9.94943 41.7305 9.94943 40.7461V31.9922C9.94943 31.6406 10.1252 31.3242 10.4065 31.1133C10.6877 30.9024 11.0744 30.8672 11.3908 31.0078L14.3791 32.2383C14.9065 32.4492 15.1877 33.0821 14.9768 33.6094C14.7658 34.1367 14.133 34.418 13.6057 34.2071L12.0588 33.5742V40.7461C12.0588 42.8906 10.301 44.6485 8.15646 44.6485Z" fill="#9799C5"/>
<path d="M30.9376 36.9141C30.797 36.9141 30.6564 36.8789 30.5158 36.8438L10.6173 28.4414C10.09 28.2305 9.84389 27.5977 10.0548 27.0703C10.2658 26.543 10.8986 26.2969 11.4259 26.5078L31.3595 34.875C31.8869 35.086 32.133 35.7188 31.922 36.2461C31.7462 36.668 31.3595 36.9141 30.9376 36.9141Z" fill="#9799C5"/>
<path d="M43.5938 20.0391H37.9688C37.3711 20.0391 36.9141 19.582 36.9141 18.9844C36.9141 18.3867 37.3711 17.9297 37.9688 17.9297H43.5938C44.1914 17.9297 44.6484 18.3867 44.6484 18.9844C44.6484 19.582 44.1914 20.0391 43.5938 20.0391Z" fill="#9799C5"/>
<path d="M35.8945 15.082C35.6133 15.082 35.3672 14.9766 35.1563 14.7656C34.7344 14.3438 34.7344 13.6758 35.1563 13.2891L39.1289 9.31641C39.5508 8.89453 40.2188 8.89453 40.6055 9.31641C41.0273 9.73828 41.0273 10.4063 40.6055 10.793L36.668 14.7656C36.457 14.9766 36.1758 15.082 35.8945 15.082Z" fill="#9799C5"/>
<path d="M39.9023 29.0039C39.6211 29.0039 39.375 28.8984 39.1641 28.6875L35.1563 24.7148C34.7344 24.293 34.7344 23.625 35.1563 23.2383C35.5781 22.8164 36.2461 22.8164 36.6328 23.2383L40.6055 27.2109C41.0273 27.6328 41.0273 28.3008 40.6055 28.6875C40.4297 28.8984 40.1484 29.0039 39.9023 29.0039Z" fill="#9799C5"/>
<path d="M30.375 35.1562C29.6016 34.418 28.125 28.6172 28.125 18.6328C28.125 8.64844 29.0742 3.19922 29.8828 2.46094C30.4102 2.39062 31.9922 1.93359 31.9922 1.40625C31.9922 0.808594 31.5352 0.351562 30.9375 0.351562H23.9062C22.3945 0.351562 21.375 2.17969 20.6367 6.25781C20.0391 9.5625 19.6875 13.957 19.6875 18.6328C19.6875 23.3086 20.0391 27.7031 20.6367 31.0078C21.375 35.0859 22.3945 36.9141 23.9062 36.9141H30.9375C31.5352 36.9141 31.9922 36.457 31.9922 35.8594C31.9922 35.332 30.9023 35.2266 30.375 35.1562Z" fill="#9799C5"/>
<path d="M33.5039 28.6875C32.9414 28.6172 32.3789 29.0039 32.3086 29.5664C31.7813 32.8711 31.2188 34.1719 30.9375 34.6289C30.2695 33.6094 29.2852 29.7422 28.9336 23.2031C31.2539 22.957 33.0469 20.9883 33.0469 18.6328C33.0469 16.2773 31.2539 14.3086 28.9336 14.0977C29.25 7.55859 30.2695 3.69141 30.9375 2.67188C31.2539 3.16406 31.8516 4.53516 32.3789 8.15625C32.4492 8.71875 33.0117 9.14062 33.5742 9.03516C34.1367 8.96484 34.5586 8.40234 34.4531 7.83984C33.9609 4.35938 33.1172 0.351562 30.9375 0.351562C29.4258 0.351562 28.4062 2.17969 27.668 6.25781C27.0703 9.5625 26.7188 13.957 26.7188 18.6328C26.7188 23.3086 27.0703 27.7031 27.668 31.0078C28.4062 35.0859 29.4258 36.9141 30.9375 36.9141C32.5898 36.9141 33.6445 34.7344 34.418 29.8828C34.4883 29.3203 34.1016 28.7578 33.5039 28.6875Z" fill="#9799C5"/>
</svg>
