<svg width="45" height="45" viewBox="0 0 45 45" fill="none" xmlns="http://www.w3.org/2000/svg">
<g clip-path="url(#clip0_38_127)">
<path d="M7.03125 37.6172C4.31719 37.6172 2.10937 35.4094 2.10937 32.6953L2.10937 26.3672C2.10937 23.6531 4.31719 21.4453 7.03125 21.4453C9.74531 21.4453 11.9531 23.6531 11.9531 26.3672L11.9531 32.6953C11.9531 35.4094 9.74531 37.6172 7.03125 37.6172ZM7.03125 23.5547C5.48086 23.5547 4.21875 24.8168 4.21875 26.3672L4.21875 32.6953C4.21875 34.2457 5.48086 35.5078 7.03125 35.5078C8.58164 35.5078 9.84375 34.2457 9.84375 32.6953L9.84375 26.3672C9.84375 24.8168 8.58164 23.5547 7.03125 23.5547Z" fill="white"/>
<path d="M37.9687 44.2969L3.16406 44.2969C2.58047 44.2969 2.10937 43.8258 2.10937 43.2422C2.10937 42.6586 2.58047 42.1875 3.16406 42.1875L37.9687 42.1875C39.5191 42.1875 40.7812 40.9254 40.7812 39.375L40.7812 15.8203C40.7812 14.2699 39.5191 13.0078 37.9687 13.0078C36.4184 13.0078 35.1562 14.2699 35.1562 15.8203L35.1562 36.2109C35.1562 36.7945 34.6852 37.2656 34.1016 37.2656C33.518 37.2656 33.0469 36.7945 33.0469 36.2109L33.0469 15.8203C33.0469 13.1063 35.2547 10.8984 37.9688 10.8984C40.6828 10.8984 42.8906 13.1063 42.8906 15.8203L42.8906 39.375C42.8906 42.0891 40.6828 44.2969 37.9687 44.2969Z" fill="white"/>
<path d="M22.5 37.6172C19.7859 37.6172 17.5781 35.4094 17.5781 32.6953L17.5781 5.27344C17.5781 2.55938 19.7859 0.351563 22.5 0.351563C25.2141 0.351563 27.4219 2.55938 27.4219 5.27344L27.4219 32.6953C27.4219 35.4094 25.2141 37.6172 22.5 37.6172ZM22.5 2.46094C20.9496 2.46094 19.6875 3.72305 19.6875 5.27344L19.6875 32.6953C19.6875 34.2457 20.9496 35.5078 22.5 35.5078C24.0504 35.5078 25.3125 34.2457 25.3125 32.6953L25.3125 5.27344C25.3125 3.72305 24.0504 2.46094 22.5 2.46094Z" fill="#FF9447"/>
</g>
<defs>
<clipPath id="clip0_38_127">
<rect width="45" height="45" fill="white"/>
</clipPath>
</defs>
</svg>
