<svg width="45" height="45" viewBox="0 0 45 45" fill="none" xmlns="http://www.w3.org/2000/svg">
<g clip-path="url(#clip0_38_506)">
<path d="M43.5938 44.6484H1.40625C0.808594 44.6484 0.351562 44.1914 0.351562 43.5938C0.351562 42.9961 0.808594 42.5391 1.40625 42.5391H42.5391V18.9844C42.5391 18.3867 42.9961 17.9297 43.5938 17.9297C44.1914 17.9297 44.6484 18.3867 44.6484 18.9844V43.5938C44.6484 44.1914 44.1914 44.6484 43.5938 44.6484Z" fill="#9799C5"/>
<path d="M38.3203 41.1328C37.7227 41.1328 37.2656 40.6758 37.2656 40.0781V26.0156C37.2656 25.418 37.7227 24.9609 38.3203 24.9609C38.918 24.9609 39.375 25.418 39.375 26.0156V40.0781C39.375 40.6758 38.918 41.1328 38.3203 41.1328Z" fill="#9799C5"/>
<path d="M33.0469 41.1328C32.4492 41.1328 31.9922 40.6758 31.9922 40.0781V33.0469C31.9922 32.4492 32.4492 31.9922 33.0469 31.9922C33.6445 31.9922 34.1016 32.4492 34.1016 33.0469V40.0781C34.1016 40.6758 33.6445 41.1328 33.0469 41.1328Z" fill="#9799C5"/>
<path d="M27.7734 41.1328C27.1758 41.1328 26.7188 40.6758 26.7188 40.0781V36.5625C26.7188 35.9648 27.1758 35.5078 27.7734 35.5078C28.3711 35.5078 28.8281 35.9648 28.8281 36.5625V40.0781C28.8281 40.6758 28.3711 41.1328 27.7734 41.1328Z" fill="#9799C5"/>
<path d="M22.5 41.1328C22.2188 41.1328 21.9375 41.0273 21.7617 40.8164C21.5508 40.6055 21.4453 40.3594 21.4453 40.0781C21.4453 40.0078 21.4453 39.9375 21.4805 39.8672C21.4805 39.7969 21.5156 39.7266 21.5508 39.6563C21.5859 39.5859 21.6211 39.5508 21.6562 39.4805C21.6914 39.4102 21.7266 39.375 21.7969 39.3047C22.1836 38.918 22.8867 38.918 23.2734 39.3047C23.4844 39.5156 23.5898 39.7617 23.5898 40.043C23.5898 40.3242 23.4844 40.6055 23.2734 40.7812C23.2383 40.8164 23.168 40.8867 23.0977 40.9219C23.0273 40.957 22.9922 40.9922 22.9219 41.0273C22.8516 41.0625 22.7812 41.0625 22.7109 41.0977C22.6406 41.1328 22.5703 41.1328 22.5 41.1328Z" fill="#9799C5"/>
<path d="M43.5938 0.351562H33.0469C32.4492 0.351562 31.9922 0.808594 31.9922 1.40625V8.4375C31.9922 9.03516 32.4492 9.49219 33.0469 9.49219H40.0781C40.6758 9.49219 41.1328 9.03516 41.1328 8.4375C41.1328 7.83984 40.6758 7.38281 40.0781 7.38281H34.1016V2.46094H42.5391V8.26172C36.3516 25.6289 19.8281 37.2656 1.40625 37.2656C0.808594 37.2656 0.351562 37.7227 0.351562 38.3203C0.351562 38.918 0.808594 39.375 1.40625 39.375C20.7773 39.375 38.1094 27.1055 44.5781 8.82422V8.78906C44.6133 8.68359 44.6484 8.54297 44.6484 8.4375V1.40625C44.6484 0.808594 44.1914 0.351562 43.5938 0.351562Z" fill="#9799C5"/>
<path d="M25.0315 14.0977C25.2072 14.4844 25.594 14.7656 26.0158 14.7656H34.8049C35.4026 14.7656 35.8596 14.3086 35.8596 13.7109V11.9531C35.8596 11.3555 35.4026 10.8984 34.8049 10.8984C34.2072 10.8984 33.7502 11.3555 33.7502 11.9531V12.6562H27.9846C28.6877 11.1094 28.6877 9.28125 27.9846 7.73438H29.5315C30.1291 7.73438 30.5861 7.27734 30.5861 6.67969C30.5861 6.08203 30.1291 5.625 29.5315 5.625H26.0158C25.594 5.625 25.2072 5.87109 25.0315 6.29297C24.8557 6.67969 24.9611 7.13672 25.2776 7.45313C26.7893 8.96484 26.7893 11.4609 25.2776 13.0078C24.9611 13.2539 24.8908 13.7109 25.0315 14.0977Z" fill="#9799C5"/>
<path d="M12.0242 6.73516L7.49297 11.2664C7.22109 11.5383 7.22109 11.9687 7.49297 12.218C7.76484 12.4898 8.19531 12.4898 8.44453 12.218L11.8203 8.84219V22.1641C11.8203 22.5492 12.1148 22.8438 12.5 22.8438C12.8852 22.8438 13.1797 22.5492 13.1797 22.1641V8.84219L16.5555 12.218C16.6914 12.3539 16.8727 12.4219 17.0312 12.4219C17.1898 12.4219 17.3711 12.3539 17.507 12.218C17.7789 11.9461 17.7789 11.5156 17.507 11.2664L12.9758 6.73516C12.7039 6.46328 12.2961 6.46328 12.0242 6.73516Z" fill="#9799C5"/>
</g>
<defs>
<clipPath id="clip0_38_506">
<rect width="45" height="45" fill="white"/>
</clipPath>
</defs>
</svg>
