<svg width="45" height="45" viewBox="0 0 45 45" fill="none" xmlns="http://www.w3.org/2000/svg">
<g clip-path="url(#clip0_38_123)">
<path d="M8.4375 0.351563C3.97969 0.351563 0.351562 3.97969 0.351562 8.4375L0.351562 15.4688C0.351562 16.0523 0.822656 16.5234 1.40625 16.5234C1.98984 16.5234 2.46094 16.0523 2.46094 15.4688L2.46094 8.4375C2.46094 5.14336 5.14336 2.46094 8.4375 2.46094L36.5625 2.46094C39.8566 2.46094 42.5391 5.14336 42.5391 8.4375L42.5391 12.3047C42.5391 12.8883 43.0102 13.3594 43.5937 13.3594C44.1773 13.3594 44.6484 12.8883 44.6484 12.3047L44.6484 8.4375C44.6484 3.97969 41.0203 0.351563 36.5625 0.351563L8.4375 0.351563ZM38.3203 16.1719C34.8328 16.1719 31.9922 19.009 31.9922 22.5C31.9922 25.991 34.8328 28.8281 38.3203 28.8281L43.5937 28.8281C44.1773 28.8281 44.6484 28.357 44.6484 27.7734L44.6484 17.2266C44.6484 16.643 44.1773 16.1719 43.5937 16.1719L38.3203 16.1719ZM13.7109 17.9297C6.09609 17.9297 0.351562 20.6508 0.351562 24.2578C0.351562 27.8648 6.09609 30.5859 13.7109 30.5859C21.3258 30.5859 27.0703 27.8648 27.0703 24.2578C27.0703 20.6508 21.3258 17.9297 13.7109 17.9297ZM38.3203 18.2813L42.5391 18.2813L42.5391 26.7188L38.3203 26.7188C35.993 26.7188 34.1016 24.8273 34.1016 22.5C34.1016 20.1727 35.993 18.2813 38.3203 18.2813ZM13.7109 20.0391C20.148 20.0391 24.9609 22.268 24.9609 24.2578C24.9609 26.2477 20.148 28.4766 13.7109 28.4766C7.27383 28.4766 2.46094 26.2477 2.46094 24.2578C2.46094 22.268 7.27383 20.0391 13.7109 20.0391ZM1.40625 30.2344C0.822656 30.2344 0.351562 30.7055 0.351562 31.2891C0.351562 34.8961 6.09609 37.6172 13.7109 37.6172C21.3258 37.6172 27.0703 34.8961 27.0703 31.2891C27.0703 30.7055 26.5992 30.2344 26.0156 30.2344C25.432 30.2344 24.9609 30.7055 24.9609 31.2891C24.9609 33.2789 20.148 35.5078 13.7109 35.5078C7.27383 35.5078 2.46094 33.2789 2.46094 31.2891C2.46094 30.7055 1.98984 30.2344 1.40625 30.2344ZM43.5937 31.6406C43.0102 31.6406 42.5391 32.1117 42.5391 32.6953L42.5391 36.5625C42.5391 39.8566 39.8566 42.5391 36.5625 42.5391L29.5312 42.5391C28.9477 42.5391 28.4766 43.0102 28.4766 43.5938C28.4766 44.1773 28.9477 44.6484 29.5312 44.6484L36.5625 44.6484C41.0203 44.6484 44.6484 41.0203 44.6484 36.5625L44.6484 32.6953C44.6484 32.1117 44.1773 31.6406 43.5937 31.6406ZM1.40625 37.2656C0.822655 37.2656 0.351562 37.7367 0.351562 38.3203C0.351562 41.9273 6.09609 44.6484 13.7109 44.6484C21.3258 44.6484 27.0703 41.9273 27.0703 38.3203C27.0703 37.7367 26.5992 37.2656 26.0156 37.2656C25.432 37.2656 24.9609 37.7367 24.9609 38.3203C24.9609 40.3102 20.148 42.5391 13.7109 42.5391C7.27383 42.5391 2.46094 40.3102 2.46094 38.3203C2.46094 37.7367 1.98984 37.2656 1.40625 37.2656Z" fill="#9799C5"/>
</g>
<defs>
<clipPath id="clip0_38_123">
<rect width="45" height="45" fill="white"/>
</clipPath>
</defs>
</svg>
