<svg width="45" height="45" viewBox="0 0 45 45" fill="none" xmlns="http://www.w3.org/2000/svg">
<path d="M2.77734 14.0977C2.98828 14.3086 3.23437 14.4141 3.51562 14.4141C3.79687 14.4141 4.04297 14.3086 4.25391 14.0977L8.4375 9.91406L12.6211 14.0977C12.832 14.3086 13.1133 14.4141 13.3594 14.4141C13.6055 14.4141 13.8867 14.3086 14.0977 14.0977C14.5195 13.6758 14.5195 13.0078 14.0977 12.6211L9.91406 8.4375L14.0977 4.25391C14.5195 3.83203 14.5195 3.16406 14.0977 2.77734C13.6758 2.35547 13.0078 2.35547 12.6211 2.77734L8.4375 6.96094L4.25391 2.77734C3.83203 2.35547 3.16406 2.35547 2.77734 2.77734C2.35547 3.16406 2.35547 3.86719 2.77734 4.25391L6.96094 8.4375L2.77734 12.6211C2.35547 13.0078 2.35547 13.7109 2.77734 14.0977Z" fill="#FF9447"/>
<path d="M36.5625 30.5859C33.2578 30.5859 30.5859 33.2578 30.5859 36.5625C30.5859 39.8672 33.2578 42.5391 36.5625 42.5391C39.8672 42.5391 42.5391 39.8672 42.5391 36.5625C42.5391 33.2578 39.8672 30.5859 36.5625 30.5859ZM36.5625 40.4297C34.418 40.4297 32.6953 38.707 32.6953 36.5625C32.6953 34.418 34.418 32.6953 36.5625 32.6953C38.707 32.6953 40.4297 34.418 40.4297 36.5625C40.4297 38.707 38.707 40.4297 36.5625 40.4297Z" fill="#FF9447"/>
<path d="M11.1797 40.8165C10.6172 40.9571 10.3008 41.5548 10.4415 42.1173C10.5821 42.6797 10.7579 43.2774 10.9337 43.8751C11.0743 44.3321 11.4962 44.6485 11.9532 44.6485C12.0587 44.6485 12.129 44.6485 12.2344 44.6133C12.7969 44.4376 13.1133 43.8751 12.9727 43.3126C12.7969 42.7149 12.6563 42.1172 12.4805 41.5547C12.3399 40.9922 11.7422 40.6758 11.1797 40.8165Z" fill="white"/>
<path d="M32.4142 19.8984C30.34 21.4805 25.9806 21.5508 21.7619 21.6562C17.508 21.7617 13.5353 21.832 11.3205 23.4141C7.91032 25.875 7.17204 28.0547 9.10563 36.8086C9.2111 37.3008 9.63298 37.6523 10.1252 37.6523C10.1955 37.6523 10.2658 37.6523 10.3361 37.6172C10.8986 37.4766 11.2502 36.9141 11.1447 36.3516C9.28142 27.8789 10.1603 26.8594 12.5509 25.1367C14.2033 23.9414 18.0705 23.8711 21.797 23.7656C26.3674 23.6602 31.0431 23.5547 33.6799 21.5859C36.2111 19.6875 36.9845 15.8203 36.0705 10.125C35.7541 8.15625 35.2619 6.36328 34.8752 4.95703L39.1642 7.24218C39.6916 7.52343 40.3244 7.3125 40.6056 6.82031C40.8869 6.29297 40.6759 5.66015 40.1838 5.3789L33.6095 1.86328C33.0822 1.58203 32.4494 1.79296 32.1681 2.28515L28.6525 8.85937C28.3713 9.38672 28.5822 10.0195 29.0744 10.3008C29.215 10.3711 29.3908 10.4414 29.5666 10.4414C29.9533 10.4414 30.3049 10.2305 30.5158 9.8789L32.8713 5.48437C34.172 10.0195 35.5783 17.5078 32.4142 19.8984Z" fill="white"/>
</svg>
